<?xml version="1.0" encoding="UTF-8" standalone="no" ?>
<!DOCTYPE svg PUBLIC "-//W3C//DTD SVG 1.1//EN" "http://www.w3.org/Graphics/SVG/1.1/DTD/svg11.dtd">
<svg xmlns="http://www.w3.org/2000/svg" xmlns:xlink="http://www.w3.org/1999/xlink" version="1.1" width="1280" height="1024" viewBox="0 0 1280 1024" xml:space="preserve">
<desc>Created with Fabric.js 5.3.0</desc>
<defs>
</defs>
<g transform="matrix(1 0 0 1 640 512)" id="background-logo"  >
<rect style="stroke: none; stroke-width: 0; stroke-dasharray: none; stroke-linecap: butt; stroke-dashoffset: 0; stroke-linejoin: miter; stroke-miterlimit: 4; fill: rgb(255,255,255); fill-opacity: 0; fill-rule: nonzero; opacity: 1;"  paint-order="stroke"  x="-640" y="-512" rx="0" ry="0" width="1280" height="1024" />
</g>
<g transform="matrix(0.36909320553742625 0.472417759926949 -0.4724177599269495 0.3690932055374266 251.49999972555275 707.8227115663657)" id="shape-677325ae-88c8-4b1b-8dde-5892fab3d074"  >
<g style=""  paint-order="stroke"   >
		<g transform="matrix(1 0 0 1 0 0)" id="path-05_00000022544300780244477910000011188914008457624218_"  >
<ellipse style="stroke: none; stroke-width: 1; stroke-dasharray: none; stroke-linecap: butt; stroke-dashoffset: 0; stroke-linejoin: miter; stroke-miterlimit: 4; fill: rgb(178,116,84); fill-rule: nonzero; opacity: 0.2;"  paint-order="stroke"  cx="0" cy="0" rx="138.49866" ry="4.72155" />
</g>
		<g transform="matrix(1 0 0 1 0.00006000000001904482 0.00008500000000122299)" id="path-04_00000071558040537438252040000017187674728736874925_"  >
<path style="stroke: none; stroke-width: 1; stroke-dasharray: none; stroke-linecap: butt; stroke-dashoffset: 0; stroke-linejoin: miter; stroke-miterlimit: 4; fill: rgb(178,116,84); fill-rule: nonzero; opacity: 0.2;"  paint-order="stroke"  transform=" translate(-138.49872000000002, -4.721635000000001)" d="M 138.49872 8.44307 C 65.11738 8.44307 14.24481999999999 6.607620000000001 2.9557499999999948 4.72139 C 14.24482 2.83565 65.11787 1.0002 138.49872 1.0002 C 211.87957 1.0002 262.75263 2.8356500000000002 274.04169 4.7213899999999995 C 262.75262 6.60762 211.88007 8.44307 138.49872 8.44307 z" stroke-linecap="round" />
</g>
		<g transform="matrix(1 0 0 1 0.00006499999997799932 0.00008499999999944663)" id="path-03_00000068658022078684668830000014151673162593457563_"  >
<path style="stroke: none; stroke-width: 1; stroke-dasharray: none; stroke-linecap: butt; stroke-dashoffset: 0; stroke-linejoin: miter; stroke-miterlimit: 4; fill: rgb(178,116,84); fill-rule: nonzero; opacity: 0.2;"  paint-order="stroke"  transform=" translate(-138.49872499999998, -4.721634999999999)" d="M 138.49872 7.44307 C 77.57049999999998 7.44307 32.954779999999985 6.18868 12.784369999999996 4.7213899999999995 C 32.95576 3.25411 77.57246 2.0002 138.49872 2.0002 C 199.42497999999998 2.0002 244.04169 3.25411 264.21308 4.7213899999999995 C 244.04266 6.18868 199.42694 7.44307 138.49872 7.44307 z" stroke-linecap="round" />
</g>
		<g transform="matrix(1 0 0 1 0.00005999999999062311 0.00008500000000033481)" id="path-02_00000026158257719042075790000004736012580963954087_"  >
<path style="stroke: none; stroke-width: 1; stroke-dasharray: none; stroke-linecap: butt; stroke-dashoffset: 0; stroke-linejoin: miter; stroke-miterlimit: 4; fill: rgb(255,136,0); fill-rule: nonzero; opacity: 0.5;"  paint-order="stroke"  transform=" translate(-138.49872, -4.721635)" d="M 138.49872 6.44307 C 90.00067999999999 6.44307 54.043649999999985 5.6628 31.391789999999986 4.7213899999999995 C 54.04267 3.77998 89.99824 3.0002 138.49872 3.0002 C 186.99919999999997 3.0002 222.95477 3.7799899999999997 245.60565 4.7213899999999995 C 222.9538 5.6628 186.99677 6.44307 138.49872 6.44307 z" stroke-linecap="round" />
</g>
		<g transform="matrix(1 0 0 1 0.00006499999997799932 0.00008499999999944663)" id="path-01_00000057140478561636280330000000060199977194219440_"  >
<path style="stroke: none; stroke-width: 1; stroke-dasharray: none; stroke-linecap: butt; stroke-dashoffset: 0; stroke-linejoin: miter; stroke-miterlimit: 4; fill: rgb(255,207,28); fill-rule: nonzero; opacity: 1;"  paint-order="stroke"  transform=" translate(-138.49872499999998, -4.721634999999999)" d="M 138.49872 5.44307 C 107.20721999999999 5.44307 82.71503999999999 5.119829999999999 64.41864999999999 4.7213899999999995 C 82.71307999999999 4.32344 107.20428999999999 4.0001999999999995 138.49872 4.0001999999999995 C 169.79315 4.0001999999999995 194.28436 4.32344 212.5788 4.7213899999999995 C 194.28241 5.11983 169.79022 5.44307 138.49872 5.44307 z" stroke-linecap="round" />
</g>
</g>
</g>
<g transform="matrix(0.4203363680458079 0.5380060169866622 -0.5380060169866627 0.4203363680458083 251.49999972555275 707.8227115663657)" id="shape-2b8df1bb-a647-45db-b278-513929c76b76"  >
<g style=""  paint-order="stroke"   >
		<g transform="matrix(1 0 0 1 0 0)" id="path-05_00000022544300780244477910000011188914008457624218_"  >
<ellipse style="stroke: none; stroke-width: 1; stroke-dasharray: none; stroke-linecap: butt; stroke-dashoffset: 0; stroke-linejoin: miter; stroke-miterlimit: 4; fill: rgb(178,116,84); fill-rule: nonzero; opacity: 0.2;"  paint-order="stroke"  cx="0" cy="0" rx="138.49866" ry="4.72155" />
</g>
		<g transform="matrix(1 0 0 1 0.00006000000001904482 0.00008500000000122299)" id="path-04_00000071558040537438252040000017187674728736874925_"  >
<path style="stroke: none; stroke-width: 1; stroke-dasharray: none; stroke-linecap: butt; stroke-dashoffset: 0; stroke-linejoin: miter; stroke-miterlimit: 4; fill: rgb(178,116,84); fill-rule: nonzero; opacity: 0.2;"  paint-order="stroke"  transform=" translate(-138.49872000000002, -4.721635000000001)" d="M 138.49872 8.44307 C 65.11738 8.44307 14.24481999999999 6.607620000000001 2.9557499999999948 4.72139 C 14.24482 2.83565 65.11787 1.0002 138.49872 1.0002 C 211.87957 1.0002 262.75263 2.8356500000000002 274.04169 4.7213899999999995 C 262.75262 6.60762 211.88007 8.44307 138.49872 8.44307 z" stroke-linecap="round" />
</g>
		<g transform="matrix(1 0 0 1 0.00006499999997799932 0.00008499999999944663)" id="path-03_00000068658022078684668830000014151673162593457563_"  >
<path style="stroke: none; stroke-width: 1; stroke-dasharray: none; stroke-linecap: butt; stroke-dashoffset: 0; stroke-linejoin: miter; stroke-miterlimit: 4; fill: rgb(178,116,84); fill-rule: nonzero; opacity: 0.2;"  paint-order="stroke"  transform=" translate(-138.49872499999998, -4.721634999999999)" d="M 138.49872 7.44307 C 77.57049999999998 7.44307 32.954779999999985 6.18868 12.784369999999996 4.7213899999999995 C 32.95576 3.25411 77.57246 2.0002 138.49872 2.0002 C 199.42497999999998 2.0002 244.04169 3.25411 264.21308 4.7213899999999995 C 244.04266 6.18868 199.42694 7.44307 138.49872 7.44307 z" stroke-linecap="round" />
</g>
		<g transform="matrix(1 0 0 1 0.00005999999999062311 0.00008500000000033481)" id="path-02_00000026158257719042075790000004736012580963954087_"  >
<path style="stroke: none; stroke-width: 1; stroke-dasharray: none; stroke-linecap: butt; stroke-dashoffset: 0; stroke-linejoin: miter; stroke-miterlimit: 4; fill: rgb(255,136,0); fill-rule: nonzero; opacity: 0.5;"  paint-order="stroke"  transform=" translate(-138.49872, -4.721635)" d="M 138.49872 6.44307 C 90.00067999999999 6.44307 54.043649999999985 5.6628 31.391789999999986 4.7213899999999995 C 54.04267 3.77998 89.99824 3.0002 138.49872 3.0002 C 186.99919999999997 3.0002 222.95477 3.7799899999999997 245.60565 4.7213899999999995 C 222.9538 5.6628 186.99677 6.44307 138.49872 6.44307 z" stroke-linecap="round" />
</g>
		<g transform="matrix(1 0 0 1 0.00006499999997799932 0.00008499999999944663)" id="path-01_00000057140478561636280330000000060199977194219440_"  >
<path style="stroke: none; stroke-width: 1; stroke-dasharray: none; stroke-linecap: butt; stroke-dashoffset: 0; stroke-linejoin: miter; stroke-miterlimit: 4; fill: rgb(255,207,28); fill-rule: nonzero; opacity: 1;"  paint-order="stroke"  transform=" translate(-138.49872499999998, -4.721634999999999)" d="M 138.49872 5.44307 C 107.20721999999999 5.44307 82.71503999999999 5.119829999999999 64.41864999999999 4.7213899999999995 C 82.71307999999999 4.32344 107.20428999999999 4.0001999999999995 138.49872 4.0001999999999995 C 169.79315 4.0001999999999995 194.28436 4.32344 212.5788 4.7213899999999995 C 194.28241 5.11983 169.79022 5.44307 138.49872 5.44307 z" stroke-linecap="round" />
</g>
</g>
</g>
<g transform="matrix(2.338769968339173 0 0 2.338769968339173 639.5618421052634 394.5789649657516)" id="logo-logo"  >
<g style=""  paint-order="stroke"   >
		<g transform="matrix(0.7961487416059974 0 0 0.7961487416059974 0 0)"  >
<linearGradient id="SVGID_11_417099" gradientUnits="userSpaceOnUse" gradientTransform="matrix(1 0 0 1 36.85597501884631 33.25000000000003)"  x1="112.52902498115373" y1="0" x2="112.5290249811537" y2="221.93999999999994">
<stop offset="0%" style="stop-color:rgb(164,57,149);stop-opacity: 1"/>
<stop offset="81.4%" style="stop-color:rgb(183,121,89);stop-opacity: 1"/>
</linearGradient>
<path style="stroke: none; stroke-width: 1; stroke-dasharray: none; stroke-linecap: butt; stroke-dashoffset: 0; stroke-linejoin: miter; stroke-miterlimit: 4; fill: url(#SVGID_11_417099); fill-rule: nonzero; opacity: 1;"  paint-order="stroke"  transform=" translate(-149.38500000000002, -144.22)" d="M 259.48 145.11 C 262.05 140.46 262.61 135.10000000000002 261.04 130.02 L 253.32000000000002 104.98000000000002 L 251.3 103.57000000000002 C 249.29000000000002 102.17000000000002 243.12 97.88000000000002 236.08 93.05000000000003 C 238.52 89.26000000000002 239.55 84.78000000000003 238.99 80.23000000000002 C 238.34 74.95000000000002 235.64000000000001 70.29000000000002 231.38 67.10000000000002 L 210.41 51.380000000000024 L 207.95 51.43000000000002 C 205.51 51.48000000000002 198.03 51.64000000000002 189.45 51.87000000000002 C 189.19 47.37000000000002 187.39 43.140000000000015 184.26 39.79000000000002 C 180.63 35.90000000000002 175.7 33.72000000000002 170.39 33.64000000000002 L 144.19 33.25000000000002 L 142.23 34.74000000000002 C 140.28 36.22000000000002 134.29 40.76000000000002 127.51999999999998 45.97000000000003 C 123.85999999999999 41.50000000000003 118.39999999999998 38.89000000000003 112.52999999999999 38.89000000000003 C 108.51999999999998 38.89000000000003 104.66999999999999 40.11000000000003 101.38999999999999 42.42000000000003 L 79.95 57.49 L 79.24000000000001 59.85 C 78.53000000000002 62.19 76.37 69.36 73.94000000000001 77.58 C 72.35000000000001 77.16 70.71000000000001 76.95 69.05000000000001 76.95 C 60.76000000000001 76.95 53.390000000000015 82.22 50.71000000000001 90.07000000000001 L 42.24000000000001 114.87 L 43.05000000000001 117.2 C 43.85000000000001 119.51 46.320000000000014 126.59 49.180000000000014 134.66 C 44.97000000000001 136.29999999999998 41.51000000000001 139.31 39.29000000000001 143.32999999999998 C 36.72000000000001 147.98 36.16000000000001 153.33999999999997 37.73000000000001 158.42 L 45.45000000000001 183.45999999999998 L 47.47000000000001 184.86999999999998 C 50.030000000000015 186.64999999999998 55.95000000000002 190.75999999999996 62.69000000000001 195.39 C 60.250000000000014 199.17999999999998 59.22000000000001 203.66 59.780000000000015 208.20999999999998 C 60.430000000000014 213.48999999999998 63.13000000000002 218.14999999999998 67.39000000000001 221.33999999999997 L 88.36000000000001 237.05999999999997 L 90.82000000000001 237.00999999999996 C 93.27000000000001 236.95999999999995 100.77000000000001 236.79999999999995 109.32000000000001 236.56999999999996 C 109.58000000000001 241.06999999999996 111.38000000000001 245.29999999999995 114.51 248.64999999999998 C 118.14 252.53999999999996 123.07000000000001 254.71999999999997 128.38 254.79999999999998 L 154.57999999999998 255.18999999999997 L 156.54 253.69999999999996 C 159.03 251.80999999999997 164.76999999999998 247.45999999999995 171.25 242.46999999999997 C 174.91 246.93999999999997 180.37 249.54999999999998 186.24 249.54999999999998 C 190.25 249.54999999999998 194.10000000000002 248.32999999999998 197.38 246.01999999999998 L 218.81 230.93999999999997 L 219.52 228.57999999999996 C 220.23000000000002 226.23999999999995 222.39000000000001 219.06999999999996 224.82000000000002 210.84999999999997 C 226.41000000000003 211.26999999999995 228.05 211.47999999999996 229.71 211.47999999999996 C 238 211.47999999999996 245.37 206.20999999999995 248.05 198.35999999999996 L 256.52000000000004 173.55999999999995 L 255.71000000000004 171.22999999999993 C 254.91000000000003 168.91999999999993 252.44000000000003 161.82999999999993 249.58000000000004 153.76999999999992 C 253.8 152.14 257.26 149.12 259.48 145.11 z M 183.65 59.18 C 194.43 58.86 204.93 58.64 208.09 58.58 L 227.09 72.82 C 232.64000000000001 76.97999999999999 233.63 84.92999999999999 229.25 90.32 L 229.25 90.32 C 229.15 90.25 229.05 90.17999999999999 228.95 90.11999999999999 C 222.44 85.69 217.19 82.16999999999999 213.35 79.67999999999999 C 211.04999999999998 78.17999999999999 209.22 77.03999999999999 207.92 76.27 C 205.78 75.00999999999999 204.6 74.36999999999999 203.17 74.92 C 202.32 75.25 201.67999999999998 75.96000000000001 201.45 76.84 C 201.11999999999998 77.77000000000001 198.78 82.02000000000001 196.78 85.45 L 195.49 87.67 L 229.63 111.28 L 226.24 113.1 L 183 82.57 L 145.16 85.27 L 123.62 105.02 L 122.43 132.63 L 133.38 144.16 L 134.07999999999998 147.52 L 124.08999999999999 145.67000000000002 L 111.39999999999999 126.51000000000002 L 116.36999999999999 102.02000000000002 L 142.39999999999998 80.11000000000003 L 196.77999999999997 79.37000000000003 L 203.89 64.64000000000003 L 158.44 65.70000000000003 C 158.35999999999999 65.01000000000003 158.27 64.24000000000004 158.18 63.45000000000003 C 158.02 62.150000000000034 157.88 61.13000000000003 157.76000000000002 60.32000000000003 C 160.78 60.05 167.73 59.65 183.65 59.18 z M 127.12 55.28 C 135.65 48.69 144.02 42.33 146.54000000000002 40.43 L 170.28000000000003 40.79 C 177.22000000000003 40.89 182.68000000000004 46.74 182.31000000000003 53.67 L 182.31000000000003 53.67 C 182.19000000000003 53.67 182.07000000000002 53.68 181.95000000000002 53.68 C 174.08 53.92 167.76000000000002 54.16 163.19000000000003 54.4 C 160.45000000000002 54.54 158.29000000000002 54.69 156.79000000000002 54.83 C 154.32000000000002 55.059999999999995 152.99 55.25 152.15000000000003 56.53 C 151.65000000000003 57.300000000000004 151.55000000000004 58.25 151.88000000000002 59.1 C 152.16000000000003 60.050000000000004 152.76000000000002 64.86 153.16000000000003 68.81 L 153.42000000000002 71.37 L 194.92000000000002 70.41000000000001 L 193.25000000000003 73.88000000000001 L 140.32000000000002 74.60000000000001 L 111.29000000000002 99.03 L 105.48000000000002 127.67 L 120.75000000000001 150.71 L 136.38000000000002 153.6 L 138.93000000000004 155.91 L 129.76000000000005 160.29 L 108.23000000000005 152.25 L 97.85 129.5 L 106.03 96.47999999999999 L 149.59 63.91999999999999 L 146.68 47.829999999999984 L 110.53 75.39999999999998 C 110.06 74.88999999999997 109.54 74.30999999999997 109 73.72999999999998 C 108.11 72.76999999999998 107.4 72.01999999999998 106.82 71.43999999999997 C 109.13 69.43 114.52 65.01 127.12 55.28 z M 138.8 143.07 L 141.49 137.07 L 147.20000000000002 133.79999999999998 L 153.74 134.51 L 158.62 138.92999999999998 L 159.97 145.36999999999998 L 157.28 151.36999999999998 L 151.57 154.64 L 145.03 153.92999999999998 L 140.15 149.51 L 138.8 143.07 z M 79.1 85.35 C 82.13 75 85.16 64.94 86.08 61.919999999999995 L 105.49 48.24999999999999 C 111.16999999999999 44.24999999999999 119.02 45.779999999999994 122.8 51.599999999999994 L 122.8 51.599999999999994 C 122.7 51.669999999999995 122.61 51.74999999999999 122.50999999999999 51.81999999999999 C 116.27999999999999 56.63999999999999 111.32 60.55 107.75999999999999 63.42999999999999 C 105.63 65.16 103.96999999999998 66.53999999999999 102.83999999999999 67.53999999999999 C 100.97999999999999 69.17999999999999 100.00999999999999 70.10999999999999 100.08999999999999 71.63999999999999 C 100.13999999999999 72.54999999999998 100.61999999999999 73.37999999999998 101.38 73.86999999999999 C 102.17 74.46999999999998 105.47999999999999 78.00999999999999 108.13 80.96999999999998 L 109.83999999999999 82.88999999999999 L 142.85 57.719999999999985 L 143.53 61.509999999999984 L 101.13 93.19999999999999 L 92 130.04 L 104.13 156.63 L 130.01999999999998 166.29999999999998 L 144.36999999999998 159.45 L 147.78999999999996 159.82 L 142.94999999999996 168.75 L 120.80999999999996 174.9 L 99.04 162.6 L 86.25 131.07 L 102.35 79.11999999999999 L 90.54 67.82 L 77.5 111.37 C 76.82 111.23 76.06 111.08 75.28 110.92 C 74 110.67 72.98 110.48 72.17 110.35000000000001 C 72.86 107.37 74.63 100.63 79.1 85.35 z M 57.46 92.38 C 59.7 85.81 66.96000000000001 82.41999999999999 73.43 84.92 L 73.43 84.92 C 73.4 85.04 73.36000000000001 85.15 73.33000000000001 85.27 C 71.12000000000002 92.83 69.41000000000001 98.91 68.22000000000001 103.34 C 67.51000000000002 105.99000000000001 66.98000000000002 108.09 66.65000000000002 109.56 C 66.11000000000001 111.98 65.87000000000002 113.3 66.84000000000002 114.5 C 67.41000000000001 115.21 68.29000000000002 115.6 69.20000000000002 115.54 C 70.19000000000001 115.57000000000001 74.95000000000002 116.48 78.83000000000001 117.32000000000001 L 81.34000000000002 117.86000000000001 L 93.25 78.1 L 96.03 80.75999999999999 L 80.36 131.32 L 94.62 166.48 L 120.06 180.85999999999999 L 146.69 173.45999999999998 L 154.27 159.48999999999998 L 157.25 157.77999999999997 L 158.58 167.84999999999997 L 144.28 185.83999999999997 L 119.45 188.67999999999998 L 90.57000000000001 170.68999999999997 L 73.07 119.2 L 56.87 117 L 71.92 159.9 C 71.29 160.19 70.58 160.51000000000002 69.86 160.84 C 68.67 161.39000000000001 67.74 161.84 67.01 162.20000000000002 C 65.82000000000001 159.39000000000001 63.290000000000006 152.9 57.92 137.9 C 54.29 127.75 50.83 117.83000000000001 49.79 114.85000000000001 L 57.46 92.38 z M 51.55 179 L 44.55 156.31 C 42.5 149.68 46.379999999999995 142.67000000000002 53.08 140.88 L 53.08 140.88 C 53.12 140.99 53.16 141.10999999999999 53.199999999999996 141.22 C 55.86 148.64 58.03999999999999 154.56 59.69 158.84 C 60.669999999999995 161.4 61.48 163.41 62.08 164.79 C 63.07 167.07 63.65 168.28 65.13 168.67999999999998 C 66.00999999999999 168.92 66.94999999999999 168.70999999999998 67.64999999999999 168.14 C 68.46 167.57999999999998 72.85 165.51999999999998 76.49 163.92 L 78.83999999999999 162.88 L 65.1 123.71 L 68.91 124.22999999999999 L 85.94999999999999 174.35 L 118.14999999999999 194.41 L 147.18 191.09 L 164.37 169.45 L 162.29 153.69 L 163.7 150.56 L 170.69 157.93 L 169.7 180.89000000000001 L 151.29 197.78000000000003 L 117.35 200.20000000000002 L 72.91999999999999 168.83 L 58.50999999999999 176.57000000000002 L 95.89999999999999 202.43 C 95.55999999999999 203.03 95.16999999999999 203.71 94.78999999999999 204.4 C 94.14999999999999 205.54 93.66 206.45000000000002 93.27999999999999 207.18 C 90.66999999999999 205.61 84.79999999999998 201.84 71.63999999999999 192.87 C 62.77 186.8 54.14 180.8 51.55 179 z M 115.12 229.26 C 104.34 229.57999999999998 93.84 229.79999999999998 90.68 229.85999999999999 L 71.68 215.61999999999998 C 66.13000000000001 211.45999999999998 65.14 203.51 69.52000000000001 198.11999999999998 L 69.52000000000001 198.11999999999998 C 69.62 198.18999999999997 69.72000000000001 198.25999999999996 69.82000000000001 198.31999999999996 C 76.33000000000001 202.74999999999997 81.58000000000001 206.26999999999995 85.42 208.75999999999996 C 87.72 210.25999999999996 89.55 211.39999999999995 90.85 212.16999999999996 C 92.46 213.11999999999995 93.53 213.71999999999997 94.57 213.71999999999997 C 94.91 213.71999999999997 95.25 213.65999999999997 95.6 213.51999999999998 C 96.44999999999999 213.18999999999997 97.08999999999999 212.48 97.32 211.6 C 97.64999999999999 210.67 99.99 206.42 101.99 202.99 L 103.28 200.77 L 69.14 177.16000000000003 L 72.53 175.34000000000003 L 115.77000000000001 205.87000000000003 L 153.61 203.17000000000004 L 175.15 183.42000000000004 L 176.34 155.81000000000006 L 165.39000000000001 144.28000000000006 L 164.69000000000003 140.92000000000004 L 174.68000000000004 142.77000000000004 L 187.37000000000003 161.93000000000004 L 182.40000000000003 186.42000000000004 L 156.37000000000003 208.33000000000004 L 101.99000000000004 209.07000000000005 L 94.88000000000004 223.80000000000004 L 140.33000000000004 222.74000000000004 C 140.41000000000005 223.43000000000004 140.50000000000003 224.20000000000005 140.59000000000003 224.99000000000004 C 140.75000000000003 226.29000000000005 140.89000000000004 227.31000000000003 141.01000000000002 228.12000000000003 C 137.99 228.38 131.03 228.78 115.12 229.26 z M 171.64 233.16 C 163.10999999999999 239.75 154.73999999999998 246.10999999999999 152.21999999999997 248.01 L 128.47999999999996 247.64999999999998 C 121.53999999999996 247.54999999999998 116.07999999999996 241.7 116.44999999999996 234.76999999999998 L 116.44999999999996 234.76999999999998 C 116.56999999999996 234.76999999999998 116.68999999999996 234.76 116.80999999999996 234.76 C 124.67999999999996 234.51999999999998 130.99999999999997 234.28 135.56999999999996 234.04 C 138.30999999999997 233.9 140.46999999999997 233.75 141.96999999999997 233.60999999999999 C 144.43999999999997 233.38 145.76999999999998 233.19 146.60999999999996 231.91 C 147.10999999999996 231.14 147.19999999999996 230.19 146.87999999999997 229.34 C 146.59999999999997 228.39000000000001 145.99999999999997 223.58 145.59999999999997 219.63 L 145.33999999999997 217.07 L 103.83999999999997 218.03 L 105.50999999999998 214.56 L 158.43999999999997 213.84 L 187.46999999999997 189.41 L 193.27999999999997 160.76999999999998 L 178.00999999999996 137.73 L 162.37999999999997 134.84 L 159.82999999999996 132.53 L 168.99999999999994 128.15 L 190.52999999999994 136.19 L 200.89999999999995 158.92 L 192.71999999999994 191.94 L 149.15999999999994 224.5 L 152.06999999999994 240.59 L 188.21999999999994 213.02 C 188.68999999999994 213.53 189.20999999999995 214.11 189.74999999999994 214.69 C 190.63999999999993 215.65 191.34999999999994 216.4 191.92999999999995 216.98 C 189.64 219 184.24 223.42 171.64 233.16 z M 219.67 203.09 C 216.64 213.44 213.60999999999999 223.5 212.69 226.52 L 193.28 240.19 C 187.6 244.19 179.75 242.66 175.97 236.84 L 175.97 236.84 C 176.07 236.77 176.16 236.69 176.26 236.62 C 182.48999999999998 231.8 187.45 227.89000000000001 191.01 225.01 C 193.14 223.28 194.79999999999998 221.89999999999998 195.92999999999998 220.89999999999998 C 197.79 219.26 198.76 218.32999999999998 198.67999999999998 216.79999999999998 C 198.62999999999997 215.89 198.14999999999998 215.05999999999997 197.39 214.57 C 196.6 213.97 193.29 210.43 190.64 207.47 L 188.92999999999998 205.55 L 155.92 230.72000000000003 L 155.23999999999998 226.93000000000004 L 197.64 195.24000000000004 L 206.76999999999998 158.41000000000003 L 194.64 131.82000000000002 L 168.75 122.15000000000002 L 154.4 129.00000000000003 L 150.98000000000002 128.63000000000002 L 155.82000000000002 119.70000000000002 L 177.96000000000004 113.55000000000001 L 199.71000000000004 125.84 L 212.50000000000003 157.37 L 196.40000000000003 209.32 L 208.21000000000004 220.63 L 221.25000000000003 177.07999999999998 C 221.93000000000004 177.21999999999997 222.69000000000003 177.36999999999998 223.47000000000003 177.52999999999997 C 224.75000000000003 177.77999999999997 225.77000000000004 177.96999999999997 226.58000000000004 178.09999999999997 C 225.91 181.06 224.14 187.8 219.67 203.09 z M 241.3 196.05 C 239.06 202.62 231.8 206.01000000000002 225.33 203.51000000000002 L 225.33 203.51000000000002 C 225.36 203.39000000000001 225.4 203.28000000000003 225.43 203.16000000000003 C 227.64000000000001 195.60000000000002 229.35 189.52000000000004 230.54000000000002 185.09000000000003 C 231.25000000000003 182.44000000000003 231.78000000000003 180.34000000000003 232.11 178.87000000000003 C 232.65 176.45000000000005 232.89000000000001 175.13000000000002 231.92000000000002 173.93000000000004 C 231.35000000000002 173.22000000000003 230.47000000000003 172.83000000000004 229.56 172.89000000000004 C 228.57 172.86000000000004 223.81 171.95000000000005 219.93 171.11000000000004 L 217.42000000000002 170.57000000000005 L 205.51000000000002 210.33000000000004 L 202.73000000000002 207.67000000000004 L 218.4 157.11000000000004 L 204.14000000000001 121.95000000000005 L 178.70000000000002 107.57000000000005 L 152.07000000000002 114.97000000000006 L 144.49 128.94000000000005 L 141.51000000000002 130.65000000000006 L 140.18 120.58000000000007 L 154.48000000000002 102.59000000000007 L 179.31 99.75000000000007 L 208.19 117.74000000000007 L 225.7 169.23000000000008 L 241.91 171.44000000000008 L 226.85999999999999 128.54000000000008 C 227.48999999999998 128.25000000000009 228.2 127.93000000000008 228.92 127.60000000000008 C 230.10999999999999 127.05000000000008 231.04 126.60000000000008 231.76999999999998 126.24000000000008 C 232.95999999999998 129.05000000000007 235.48999999999998 135.54000000000008 240.85999999999999 150.54000000000008 C 244.48999999999998 160.69000000000008 247.95 170.61000000000007 248.98999999999998 173.5900000000001 L 241.3 196.05 z M 245.68 147.55 L 245.68 147.55 C 245.64000000000001 147.44 245.6 147.32000000000002 245.56 147.21 C 242.9 139.79000000000002 240.72 133.87 239.07 129.59 C 238.09 127.03 237.28 125.02000000000001 236.68 123.64 C 235.69 121.36 235.11 120.15 233.63 119.75 C 232.75 119.51 231.81 119.72 231.10999999999999 120.29 C 230.29999999999998 120.85000000000001 225.91 122.91000000000001 222.26999999999998 124.51 L 219.92 125.55000000000001 L 233.66 164.72000000000003 L 229.85 164.20000000000002 L 212.81 114.08000000000001 L 180.61 94.02000000000001 L 151.58 97.34 L 134.39000000000001 118.98 L 136.47000000000003 134.74 L 135.06000000000003 137.87 L 128.07000000000002 130.5 L 129.06000000000003 107.53999999999999 L 147.47000000000003 90.64999999999999 L 181.41000000000003 88.22999999999999 L 225.84000000000003 119.6 L 240.25000000000003 111.86 L 202.84 86 C 203.18 85.4 203.57 84.72 203.95000000000002 84.03 C 204.59 82.89 205.08 81.98 205.46 81.25 C 208.07000000000002 82.82 213.94 86.59 227.10000000000002 95.56 C 236.01000000000002 101.64 244.64000000000001 107.63 247.22000000000003 109.44 L 254.22000000000003 132.13 C 256.26 138.76 252.38 145.76 245.68 147.55 z" stroke-linecap="round" />
</g>
</g>
</g>
<g transform="matrix(1.9211538461538462 0 0 1.9211538461538462 638.8128826403433 708.9572133558393)" id="tagline-ad53f3d5-bd23-49dc-a86d-7ebd563e0c4a-logo"  >
<g style=""  paint-order="stroke"   >
		<g transform="matrix(1 0 0 1 0 0)" id="tagline-ad53f3d5-bd23-49dc-a86d-7ebd563e0c4a-logo-path-0"  >
<path style="stroke: rgb(255,255,255); stroke-width: 0; stroke-dasharray: none; stroke-linecap: butt; stroke-dashoffset: 0; stroke-linejoin: miter; stroke-miterlimit: 4; fill: rgb(76,12,36); fill-rule: nonzero; opacity: 1;"  paint-order="stroke"  transform=" translate(-225.41986022362522, 13.310000000000002)" d="M 19.81 0.62 C 22.05 0.62 24.02 0.36 25.9 -0.21 L 30.06 4.99 L 35.83 4.99 L 30.11 -2.18 C 34.79 -5.3 37.39 -10.82 37.39 -18.2 C 37.34 -30 30.73 -37.02 19.81 -37.02 C 8.74 -37.02 2.13 -29.95 2.13 -18.2 C 2.08 -6.4 8.74 0.62 19.81 0.62 Z M 19.81 -4.58 C 12.48 -4.58 7.96 -9.72 7.96 -18.25 C 7.9 -26.73 12.48 -31.82 19.81 -31.82 C 26.99 -31.82 31.56 -26.68 31.56 -18.25 C 31.51 -12.79 29.74 -8.84 26.62 -6.6 L 21.53 -13 L 15.81 -13 L 22.31 -4.78 C 21.48 -4.63 20.7 -4.58 19.81 -4.58 Z M 54.29 0.62 C 58.66 0.62 61.41 -1.09 63.75 -4.52 L 64.06 -4.52 L 64.06 0 L 69.47 0 L 69.47 -26 L 64.06 -26 L 64.06 -13 C 64.06 -7.59 60.37 -4.26 55.85 -4.26 C 52.05 -4.26 50.34 -5.51 50.34 -10.24 L 50.34 -26 L 44.93 -26 L 44.93 -9.83 C 44.93 -2.91 48 0.62 54.29 0.62 Z M 84.86 0.62 C 88.66 0.62 91.42 -0.57 92.77 -3.12 L 93.65 0 L 98.18 0 L 98.18 -19.29 C 98.18 -23.82 95.06 -26 88.4 -26 L 78.36 -26 L 78.36 -21.32 L 88.14 -21.32 C 92.04 -21.32 92.98 -20.85 92.98 -18.93 C 92.98 -16.59 91 -15.91 85.75 -14.87 C 79.77 -13.73 77.01 -11.18 77.01 -6.45 C 77.01 -1.51 79.87 0.62 84.86 0.62 Z M 82.32 -7.49 C 82.32 -9.36 83.77 -10.4 87.52 -11.13 C 89.8 -11.6 91.52 -12.22 92.98 -13.16 L 92.98 -9.2 C 92.98 -5.62 89.75 -4.11 86.27 -4.11 C 83.56 -4.11 82.32 -5.46 82.32 -7.49 Z M 106.29 0 L 115.39 0 C 121.52 0 125.63 -2.44 125.63 -7.07 C 125.63 -12.53 123.55 -14.4 115.49 -16.07 C 111.33 -16.95 110.81 -17.89 110.81 -19.29 C 110.76 -20.7 111.64 -21.63 115.65 -21.63 L 125.06 -21.63 L 125.06 -26 L 115.44 -26 C 108.73 -26 105.72 -23.09 105.72 -18.67 C 105.72 -14.04 108.58 -12.17 114.82 -10.87 C 119.34 -9.93 120.38 -9.05 120.38 -7.18 C 120.33 -4.73 118.92 -4.68 115.75 -4.68 L 106.29 -4.68 Z M 140.35 0.62 C 144.14 0.62 146.9 -0.57 148.25 -3.12 L 149.14 0 L 153.66 0 L 153.66 -19.29 C 153.66 -23.82 150.54 -26 143.88 -26 L 133.85 -26 L 133.85 -21.32 L 143.62 -21.32 C 147.52 -21.32 148.46 -20.85 148.46 -18.93 C 148.46 -16.59 146.48 -15.91 141.23 -14.87 C 135.25 -13.73 132.5 -11.18 132.5 -6.45 C 132.5 -1.51 135.36 0.62 140.35 0.62 Z M 137.8 -7.49 C 137.8 -9.36 139.26 -10.4 143 -11.13 C 145.29 -11.6 147 -12.22 148.46 -13.16 L 148.46 -9.2 C 148.46 -5.62 145.24 -4.11 141.75 -4.11 C 139.05 -4.11 137.8 -5.46 137.8 -7.49 Z M 161.88 -17.99 L 161.88 0 L 167.28 0 L 167.28 -17.68 C 167.28 -20.49 167.86 -21.32 170.09 -21.32 L 177.11 -21.32 L 177.11 -26 L 169.83 -26 C 164.68 -26 161.88 -25.06 161.88 -17.99 Z M 201.14 0 L 209.56 0 L 209.56 -4.99 L 201.45 -4.99 C 192.82 -4.99 188.5 -9.57 188.5 -18.25 C 188.5 -26.78 192.5 -31.41 200.25 -31.41 L 208.78 -31.41 L 208.78 -36.4 L 200.2 -36.4 C 188.55 -36.4 182.68 -29.95 182.68 -18.2 C 182.62 -6.4 188.55 0 201.14 0 Z M 215.64 10.4 L 220.79 10.4 C 225.73 10.4 227.55 8.48 229.32 3.85 L 240.66 -26 L 235.25 -26 L 227.92 -6.55 L 220.53 -26 L 215.12 -26 L 225.06 0 C 223.76 3.59 223.18 5.72 220.48 5.72 L 215.64 5.72 Z M 261.3 0.62 C 268.06 0.62 272.48 -4.11 272.48 -13 C 272.48 -21.89 268.06 -26.62 261.3 -26.62 C 256.98 -26.62 253.92 -24.75 252.3 -21.48 L 252.3 -36.4 L 246.9 -36.4 L 246.9 0 L 252.3 0 L 252.3 -4.52 C 253.92 -1.25 256.98 0.62 261.3 0.62 Z M 259.69 -4.37 C 255.11 -4.37 252.3 -7.64 252.3 -13 C 252.3 -18.36 255.11 -21.63 259.69 -21.63 C 264.16 -21.63 266.86 -18.51 266.86 -13 C 266.86 -7.49 264.16 -4.37 259.69 -4.37 Z M 292.92 0 L 302.85 0 L 302.85 -4.68 L 293.23 -4.68 C 288.39 -4.68 285.53 -6.92 284.96 -11.39 L 303.52 -11.39 C 303.84 -12.53 304.04 -13.68 304.04 -14.82 C 304.04 -22.98 299.26 -26.62 292.19 -26.62 C 284.02 -26.62 279.34 -21.58 279.34 -13.31 C 279.34 -5.04 284.44 0 292.92 0 Z M 285.06 -16.07 C 285.74 -20.44 288.18 -21.74 291.93 -21.74 C 296.04 -21.74 298.53 -19.92 298.53 -16.07 Z M 311.58 -17.99 L 311.58 0 L 316.99 0 L 316.99 -17.68 C 316.99 -20.49 317.56 -21.32 319.8 -21.32 L 326.82 -21.32 L 326.82 -26 L 319.54 -26 C 314.39 -26 311.58 -25.06 311.58 -17.99 Z M 344.08 0 L 349.7 0 L 349.7 -31.41 L 361.14 -31.41 L 361.14 -36.4 L 332.64 -36.4 L 332.64 -31.41 L 344.08 -31.41 Z M 378.72 0 L 388.65 0 L 388.65 -4.68 L 379.03 -4.68 C 374.19 -4.68 371.33 -6.92 370.76 -11.39 L 389.32 -11.39 C 389.64 -12.53 389.84 -13.68 389.84 -14.82 C 389.84 -22.98 385.06 -26.62 377.99 -26.62 C 369.82 -26.62 365.14 -21.58 365.14 -13.31 C 365.14 -5.04 370.24 0 378.72 0 Z M 370.86 -16.07 C 371.54 -20.44 373.98 -21.74 377.73 -21.74 C 381.84 -21.74 384.33 -19.92 384.33 -16.07 Z M 408.93 0 L 416.94 0 L 416.94 -4.99 L 408.77 -4.99 C 404.66 -4.99 402.32 -8.01 402.32 -13 C 402.32 -17.94 404.61 -21.01 408.56 -21.01 L 416.94 -21.01 L 416.94 -26 L 408.77 -26 C 401.13 -26 396.71 -21.11 396.71 -13 C 396.66 -4.84 401.18 0 408.93 0 Z M 443.3 -15.76 L 443.3 0 L 448.71 0 L 448.71 -16.17 C 448.71 -23.09 445.64 -26.62 439.35 -26.62 C 434.98 -26.62 432.22 -24.91 429.88 -21.48 L 429.57 -21.48 L 429.57 -36.4 L 424.16 -36.4 L 424.16 0 L 429.57 0 L 429.57 -13 C 429.57 -18.41 433.26 -21.74 437.79 -21.74 C 441.58 -21.74 443.3 -20.49 443.3 -15.76 Z" stroke-linecap="round" />
</g>
</g>
</g>
</svg>